<svg width="710" height="837" viewBox="0 0 710 837" fill="none" xmlns="http://www.w3.org/2000/svg">
<g clip-path="url(#clip0)">
<path d="M400.017 450.753L361.367 447.175C354.888 446.616 350.197 440.803 350.755 434.431L352.543 415.426C354.106 398.321 369.298 385.689 386.389 387.254C403.48 388.819 416.103 404.023 414.539 421.127L412.752 440.132C412.193 446.616 406.496 451.311 400.017 450.753Z" fill="#191816"/>
<path d="M483.796 400.557L572.826 456.789C588.464 466.627 609.13 460.143 616.391 443.15L643.535 379.204C650.796 362.1 640.854 342.536 622.758 338.288L517.531 313.582C502.451 310.004 487.259 318.5 482.344 333.257L471.397 365.677C466.929 378.757 472.067 393.179 483.796 400.557Z" fill="#6B4B24"/>
<path d="M443.024 415.985L305.403 351.703C261.614 331.245 242.624 279.149 263.066 235.326C275.577 208.384 307.637 196.757 334.558 209.278L472.849 273.895C516.414 294.241 535.293 346.114 514.962 389.825C502.34 416.991 470.057 428.729 443.024 415.985Z" fill="#4F330E"/>
<path d="M301.046 652.876C284.067 652.876 270.327 666.626 270.327 683.619V803.797C270.327 820.79 284.067 834.541 301.046 834.541C318.025 834.541 331.765 820.79 331.765 803.797V683.619C331.765 666.626 318.025 652.876 301.046 652.876Z" fill="#BC771D"/>
<path d="M556.852 696.475H495.414V802.456C495.414 819.448 509.154 833.199 526.133 833.199C543.112 833.199 556.852 819.448 556.852 802.456V696.475Z" fill="#BC771D"/>
<path d="M653.7 544.212L691.457 527.443C707.207 520.4 714.357 501.954 707.319 486.079C700.282 470.316 681.85 463.162 665.988 470.205L628.232 486.974L653.7 544.212Z" fill="#DB880F"/>
<path d="M449.95 737.839H363.266C268.763 737.839 192.133 661.148 192.133 566.571V495.135C192.133 463.05 218.049 437.114 250.109 437.114H524.457C576.512 437.114 618.737 479.372 618.737 531.468V568.695C618.848 662.155 543.224 737.839 449.95 737.839Z" fill="#BC771D"/>
<path d="M254.689 672.998L118.966 537.169L301.27 354.722C304.509 351.48 309.871 351.48 313.11 354.722L442.912 484.626L254.689 672.998Z" fill="#BC771D"/>
<path d="M519.43 760.198C431.183 760.198 359.692 688.65 359.692 600.333V593.625C359.692 505.308 431.183 433.76 519.43 433.76C607.678 433.76 679.169 505.308 679.169 593.625V600.333C679.169 688.65 607.678 760.198 519.43 760.198Z" fill="#BC771D"/>
<path d="M660.738 657.347H599.3V803.797C599.3 820.79 613.04 834.541 630.019 834.541C646.998 834.541 660.738 820.79 660.738 803.797V657.347Z" fill="#DB880F"/>
<path d="M602.316 760.198H592.039C525.574 760.198 471.732 706.313 471.732 639.796C471.732 587.141 514.404 544.436 567.017 544.436H578.188C630.801 544.436 673.472 587.141 673.472 639.796V688.873C673.584 728.225 641.636 760.198 602.316 760.198Z" fill="#DB880F"/>
<path d="M396.554 652.876C379.575 652.876 365.835 666.626 365.835 683.619V805.921C365.835 822.914 379.575 836.665 396.554 836.665C413.534 836.665 427.273 822.914 427.273 805.921V683.619C427.273 666.626 413.534 652.876 396.554 652.876Z" fill="#DB880F"/>
<path d="M331.765 779.203H277.923C262.62 779.203 250.22 791.612 250.22 806.927C250.22 822.243 262.62 834.652 277.923 834.652H303.057C318.919 834.652 331.765 821.796 331.765 805.921V779.203Z" fill="#BC771D"/>
<path d="M427.385 781.438H373.543C358.239 781.438 345.84 793.848 345.84 809.163C345.84 824.479 358.239 836.888 373.543 836.888H398.677C414.539 836.888 427.385 824.032 427.385 808.157V781.438Z" fill="#DB880F"/>
<path d="M556.964 776.967H503.122C487.818 776.967 475.419 789.376 475.419 804.692C475.419 820.007 487.818 832.416 503.122 832.416H528.255C544.117 832.416 556.964 819.56 556.964 803.685V776.967Z" fill="#BC771D"/>
<path d="M660.85 779.203H607.008C591.704 779.203 579.305 791.612 579.305 806.927C579.305 822.243 591.704 834.652 607.008 834.652H632.141C648.004 834.652 660.85 821.796 660.85 805.921V779.203Z" fill="#DB880F"/>
<path d="M254.577 350.697L208.778 396.533L174.037 361.765C161.414 349.132 161.414 328.562 174.037 315.929C186.66 303.297 207.214 303.297 219.836 315.929L254.577 350.697Z" fill="#BC771D"/>
<path d="M304.062 600.333H79.0875C40.9959 600.333 10.0535 569.366 10.0535 531.244V428.617C10.0535 385.689 44.6822 351.032 87.4654 351.032H303.951C342.042 351.032 372.985 381.999 372.985 420.121V531.132C373.096 569.366 342.154 600.333 304.062 600.333Z" fill="#DB880F"/>
<path d="M297.248 401.116C295.349 401.116 293.897 399.663 293.897 397.762V383.341C293.897 381.44 295.349 379.987 297.248 379.987C299.147 379.987 300.599 381.44 300.599 383.341V397.762C300.599 399.663 299.036 401.116 297.248 401.116Z" fill="#4F330E"/>
<path d="M338.021 425.934H323.611C321.712 425.934 320.26 424.481 320.26 422.58C320.26 420.68 321.712 419.227 323.611 419.227H338.021C339.92 419.227 341.372 420.68 341.372 422.58C341.372 424.481 339.808 425.934 338.021 425.934Z" fill="#4F330E"/>
<path d="M316.35 409.389C315.456 409.389 314.674 409.053 314.004 408.383C312.664 407.041 312.664 404.917 314.004 403.687L325.51 392.173C326.85 390.831 328.973 390.831 330.201 392.173C331.542 393.514 331.542 395.638 330.201 396.868L318.696 408.383C318.137 409.053 317.244 409.389 316.35 409.389Z" fill="#4F330E"/>
<path d="M297.695 449.299C312.193 449.299 323.946 437.537 323.946 423.028C323.946 408.518 312.193 396.756 297.695 396.756C283.197 396.756 271.444 408.518 271.444 423.028C271.444 437.537 283.197 449.299 297.695 449.299Z" fill="#2D1F0D"/>
<path d="M124.775 558.969H78.529C74.8427 558.969 71.8266 555.95 71.8266 552.261C71.8266 548.572 74.8427 545.554 78.529 545.554H124.775C128.461 545.554 131.477 548.572 131.477 552.261C131.477 555.95 128.461 558.969 124.775 558.969Z" fill="#4F330E"/>
<path d="M220.618 424.257H161.414C158.287 424.257 155.829 421.798 155.829 418.668C155.829 415.537 158.287 413.078 161.414 413.078H220.618C223.746 413.078 226.204 415.537 226.204 418.668C226.204 421.798 223.746 424.257 220.618 424.257Z" fill="#2980B9"/>
<path d="M323.946 461.708H223.411C220.283 461.708 217.826 459.249 217.826 456.119V405.811C217.826 402.681 220.283 400.222 223.411 400.222H323.946C327.074 400.222 329.531 402.681 329.531 405.811V456.119C329.531 459.249 327.074 461.708 323.946 461.708ZM228.996 450.529H318.361V411.401H228.996V450.529Z" fill="#3498DB"/>
<path d="M139.185 499.718H32.8414C14.6334 499.718 0 485.073 0 466.851V410.619C0 392.508 14.6334 377.863 32.8414 377.863H139.297C157.393 377.863 172.138 392.508 172.138 410.73V466.963C172.026 485.073 157.393 499.718 139.185 499.718Z" fill="#4F330E"/>
<path d="M132.818 426.829H122.206C114.722 426.829 108.689 420.792 108.689 413.302V403.799C108.689 396.309 114.722 390.272 122.206 390.272H132.818C140.302 390.272 146.334 396.309 146.334 403.799V413.302C146.334 420.792 140.302 426.829 132.818 426.829Z" fill="#2D1F0D"/>
<path d="M43.6768 427.052H33.0648C25.5806 427.052 19.5485 421.015 19.5485 413.525V404.023C19.5485 396.533 25.5806 390.496 33.0648 390.496H43.6768C51.1611 390.496 57.1932 396.533 57.1932 404.023V413.525C57.1932 421.015 51.1611 427.052 43.6768 427.052Z" fill="#2D1F0D"/>
<path d="M367.176 405.588L321.377 359.752L356.117 324.985C368.74 312.352 389.294 312.352 401.916 324.985C414.539 337.617 414.539 358.187 401.916 370.82L367.176 405.588Z" fill="#DB880F"/>
<path d="M370.974 337.394L344.5 365.789C340.143 370.485 332.659 370.82 327.967 366.348C315.345 354.61 314.674 334.934 326.403 322.301C338.133 309.669 357.793 308.998 370.415 320.736C375.107 325.208 375.33 332.586 370.974 337.394Z" fill="#302E2D"/>
<path d="M282.503 365.23L244.188 359.193C237.821 358.187 233.464 352.15 234.47 345.778C237.151 328.785 253.125 317.159 270.104 319.842C287.083 322.525 298.7 338.512 296.02 355.504C294.902 361.876 288.87 366.236 282.503 365.23Z" fill="#302E2D"/>
<path d="M475.977 463.609L437.327 460.031C430.848 459.472 426.156 453.659 426.715 447.287L428.502 428.282C430.066 411.177 445.258 398.545 462.349 400.11C479.44 401.675 492.063 416.879 490.499 433.983L488.711 452.988C488.153 459.472 482.456 464.168 475.977 463.609Z" fill="#302E2D"/>
<path d="M296.243 313.023H253.46C219.613 313.023 192.245 285.633 192.245 251.76V250.306C192.245 216.433 219.613 189.043 253.46 189.043H296.243C330.09 189.043 357.458 216.433 357.458 250.306V251.76C357.458 285.633 330.09 313.023 296.243 313.023Z" fill="#6B4B24"/>
<path d="M246.869 291.782H144.1C132.371 291.782 122.876 282.279 122.876 270.541C122.876 258.803 132.371 249.3 144.1 249.3H246.869C258.598 249.3 268.093 258.803 268.093 270.541C268.093 282.279 258.598 291.782 246.869 291.782Z" fill="#302E2D"/>
<path d="M299.929 243.71C303.939 243.71 307.19 240.457 307.19 236.444C307.19 232.431 303.939 229.177 299.929 229.177C295.919 229.177 292.668 232.431 292.668 236.444C292.668 240.457 295.919 243.71 299.929 243.71Z" fill="#191816"/>
<path d="M199.394 241.475C203.404 241.475 206.655 238.221 206.655 234.208C206.655 230.195 203.404 226.941 199.394 226.941C195.384 226.941 192.133 230.195 192.133 234.208C192.133 238.221 195.384 241.475 199.394 241.475Z" fill="#191816"/>
<path d="M234.582 281.72H232.347C220.618 281.72 211.123 272.218 211.123 260.479V247.064C211.123 235.326 220.618 225.823 232.347 225.823H234.582C246.311 225.823 255.806 235.326 255.806 247.064V260.479C255.806 272.218 246.311 281.72 234.582 281.72Z" fill="#302E2D"/>
<path d="M205.538 207.936H340.702V164.337C340.702 156.958 334.67 150.922 327.297 150.922H218.943C211.57 150.922 205.538 156.958 205.538 164.337V207.936Z" fill="#27AE60"/>
<path d="M335.116 211.29H168.675C162.531 211.29 157.505 206.26 157.505 200.111C157.505 193.962 162.531 188.931 168.675 188.931H335.116C341.26 188.931 346.287 193.962 346.287 200.111C346.287 206.26 341.26 211.29 335.116 211.29Z" fill="#2ECC71"/>
<path d="M264.965 151.704C252.454 151.704 242.401 141.531 242.401 129.122C242.401 116.601 252.566 106.539 264.965 106.539C277.476 106.539 287.53 116.713 287.53 129.122C287.53 141.531 277.476 151.704 264.965 151.704Z" fill="#CEA25B"/>
<path d="M267.088 151.704H227.879C225.422 151.704 223.411 149.692 223.411 147.232V144.549C223.411 142.09 225.422 140.078 227.879 140.078H267.088C269.545 140.078 271.556 142.09 271.556 144.549V147.232C271.556 149.692 269.545 151.704 267.088 151.704Z" fill="#CEA25B"/>
<path d="M293.562 150.251C268.54 150.251 248.21 129.904 248.21 104.863V84.9633C248.21 74.2311 256.923 65.6229 267.535 65.6229H290.323C311.323 65.6229 328.302 82.6156 328.302 103.633V115.371C328.302 134.6 312.775 150.251 293.562 150.251Z" fill="#CEA25B"/>
<path d="M310.094 153.157C297.583 153.157 287.53 142.984 287.53 130.575C287.53 118.054 297.695 107.993 310.094 107.993C322.605 107.993 332.659 118.166 332.659 130.575C332.771 142.984 322.605 153.157 310.094 153.157Z" fill="#EDB95D"/>
<path d="M312.217 153.157H273.008C270.551 153.157 268.54 151.145 268.54 148.686V146.003C268.54 143.543 270.551 141.531 273.008 141.531H312.217C314.674 141.531 316.685 143.543 316.685 146.003V148.686C316.685 151.145 314.674 153.157 312.217 153.157Z" fill="#EDB95D"/>
<path d="M281.721 121.073H277.253C273.232 121.073 269.992 117.831 269.992 113.806V105.645C269.992 103.745 271.556 102.18 273.455 102.18H285.407C287.306 102.18 288.87 103.745 288.87 105.645V113.806C288.982 117.831 285.743 121.073 281.721 121.073Z" fill="#EDB95D"/>
<path d="M249.773 121.073H245.305C241.284 121.073 238.044 117.831 238.044 113.806V105.645C238.044 103.745 239.608 102.18 241.507 102.18H253.46C255.359 102.18 256.923 103.745 256.923 105.645V113.806C257.034 117.831 253.683 121.073 249.773 121.073Z" fill="#EDB95D"/>
<path d="M249.662 26.1597C256.88 26.1597 262.731 20.3037 262.731 13.0799C262.731 5.85606 256.88 0 249.662 0C242.444 0 236.592 5.85606 236.592 13.0799C236.592 20.3037 242.444 26.1597 249.662 26.1597Z" fill="#CEA25B"/>
<path d="M283.285 93.3478H269.88C251.449 93.3478 236.48 78.3674 236.48 59.9215V53.2138C236.48 31.0787 254.465 13.0799 276.583 13.0799C298.7 13.0799 316.685 31.0787 316.685 53.2138V59.9215C316.685 78.3674 301.716 93.3478 283.285 93.3478Z" fill="#EDB95D"/>
<path d="M293.785 94.8011H254.912C240.725 94.8011 229.108 83.2864 229.108 68.9768C229.108 59.0271 237.151 50.978 247.092 50.978H301.605C311.547 50.978 319.589 59.0271 319.589 68.9768C319.589 83.2864 308.084 94.8011 293.785 94.8011Z" fill="#DDD4C7"/>
<path d="M286.86 39.4632C289.698 39.4632 291.998 37.1608 291.998 34.3207C291.998 31.4806 289.698 29.1782 286.86 29.1782C284.022 29.1782 281.721 31.4806 281.721 34.3207C281.721 37.1608 284.022 39.4632 286.86 39.4632Z" fill="#191816"/>
<path d="M256.252 39.4632C259.09 39.4632 261.391 37.1608 261.391 34.3207C261.391 31.4806 259.09 29.1782 256.252 29.1782C253.414 29.1782 251.114 31.4806 251.114 34.3207C251.114 37.1608 253.414 39.4632 256.252 39.4632Z" fill="#191816"/>
<path d="M308.754 26.9423C315.972 26.9423 321.823 21.0862 321.823 13.8624C321.823 6.63862 315.972 0.782562 308.754 0.782562C301.536 0.782562 295.684 6.63862 295.684 13.8624C295.684 21.0862 301.536 26.9423 308.754 26.9423Z" fill="#EDB95D"/>
<path d="M270.216 58.3564H266.864V72.8895H270.216V58.3564Z" fill="#CEA25B"/>
<path d="M277.365 74.5664H259.827C258.933 74.5664 258.151 73.7839 258.151 72.8895C258.151 71.9952 258.933 71.2126 259.827 71.2126H277.365C278.258 71.2126 279.04 71.9952 279.04 72.8895C279.04 73.7839 278.258 74.5664 277.365 74.5664Z" fill="#CEA25B"/>
<path d="M270.439 62.7163H266.641C265.524 62.7163 264.519 62.0455 264.072 61.0394L260.609 53.661C259.715 51.7605 261.056 49.5246 263.178 49.5246H274.014C276.136 49.5246 277.588 51.7605 276.583 53.661L273.12 61.0394C272.561 62.0455 271.556 62.7163 270.439 62.7163Z" fill="#CEA25B"/>
<path d="M237.821 64.3932H226.092C225.422 64.3932 224.975 63.946 224.975 63.2753C224.975 62.6045 225.422 62.1573 226.092 62.1573H237.821C238.491 62.1573 238.938 62.6045 238.938 63.2753C238.938 63.946 238.379 64.3932 237.821 64.3932Z" fill="#CEA25B"/>
<path d="M239.161 57.1266C239.05 57.1266 238.938 57.1266 238.938 57.1266L227.544 54.4436C226.985 54.3318 226.539 53.661 226.762 53.102C226.874 52.5431 227.544 52.0959 228.103 52.3195L239.497 55.0025C240.055 55.1143 240.502 55.7851 240.278 56.3441C240.167 56.7912 239.72 57.1266 239.161 57.1266Z" fill="#CEA25B"/>
<path d="M227.656 74.0075C227.209 74.0075 226.65 73.6721 226.539 73.1131C226.427 72.5542 226.762 71.8834 227.321 71.7716L238.603 68.9768C239.161 68.865 239.832 69.2003 239.943 69.7593C240.055 70.3183 239.72 70.989 239.161 71.1008L227.879 74.0075C227.879 74.0075 227.767 74.0075 227.656 74.0075Z" fill="#CEA25B"/>
<path d="M316.685 63.4989H304.956C304.286 63.4989 303.839 63.0517 303.839 62.3809C303.839 61.7102 304.286 61.263 304.956 61.263H316.685C317.355 61.263 317.802 61.7102 317.802 62.3809C317.802 63.0517 317.355 63.4989 316.685 63.4989Z" fill="#CEA25B"/>
<path d="M303.615 56.3441C303.057 56.3441 302.61 56.0087 302.498 55.4497C302.387 54.8907 302.722 54.22 303.28 54.1082L314.674 51.4251C315.233 51.3133 315.903 51.6487 316.015 52.2077C316.126 52.7667 315.791 53.4374 315.233 53.5492L303.839 56.2323C303.839 56.3441 303.727 56.3441 303.615 56.3441Z" fill="#CEA25B"/>
<path d="M315.121 73.2249C315.009 73.2249 314.898 73.2249 314.898 73.2249L303.504 70.4301C302.945 70.3183 302.498 69.6475 302.722 69.0885C302.834 68.5296 303.504 68.0824 304.062 68.306L315.345 71.1008C315.903 71.2126 316.35 71.8834 316.126 72.4424C316.126 72.8895 315.68 73.2249 315.121 73.2249Z" fill="#CEA25B"/>
<path d="M268.205 97.1488L245.194 106.875C243.183 107.769 240.949 106.204 240.949 104.08V81.1623C240.949 78.9264 243.183 77.4731 245.194 78.3674L268.205 88.0935C269.322 88.5407 270.104 89.6586 270.104 90.8883V94.354C270.104 95.5837 269.322 96.7016 268.205 97.1488Z" fill="#C0392B"/>
<path d="M271.891 97.1488L294.902 106.875C296.913 107.769 299.147 106.204 299.147 104.08V81.1623C299.147 78.9264 296.913 77.4731 294.902 78.3674L271.891 88.0935C270.774 88.5407 269.992 89.6586 269.992 90.8883V94.354C270.104 95.5837 270.774 96.7016 271.891 97.1488Z" fill="#C0392B"/>
<path d="M269.322 100.726C273.764 100.726 277.365 97.1225 277.365 92.677C277.365 88.2316 273.764 84.6279 269.322 84.6279C264.88 84.6279 261.279 88.2316 261.279 92.677C261.279 97.1225 264.88 100.726 269.322 100.726Z" fill="#E74C3C"/>
</g>
<defs>
<clipPath id="clip0">
<rect width="710" height="837" fill="white"/>
</clipPath>
</defs>
</svg>
