<svg width="50" height="50" viewBox="0 0 50 50" fill="none" xmlns="http://www.w3.org/2000/svg">
<path d="M25 48C37.7029 48 48 37.7029 48 25C48 12.2971 37.7029 2 25 2C12.2971 2 2 12.2971 2 25C2 37.7029 12.2971 48 25 48Z" stroke="currentColor" stroke-width="4" stroke-linecap="round" stroke-linejoin="round"/>
<path d="M30.0548 40V35.9875C30.109 35.3198 30.0158 34.6521 29.7818 34.0211C29.5463 33.3896 29.1768 32.816 28.6985 32.339C33.2333 31.8501 38 30.1852 38 22.5522C38 20.6008 37.2243 18.7227 35.8333 17.3098C36.4923 15.6043 36.4456 13.7088 35.7033 12.0374C35.7033 12.0374 33.9982 11.5485 30.0548 14.1072C26.7416 13.2389 23.2585 13.2389 19.9452 14.1072C16.0019 11.5485 14.2967 12.0395 14.2967 12.0395C13.5556 13.7097 13.5089 15.6034 14.1667 17.3077C12.7725 18.7162 11.9938 20.6149 12 22.5909C12 30.1701 16.7667 31.8328 21.3015 32.3777C20.8284 32.8505 20.4621 33.4181 20.2269 34.0426C19.9933 34.6625 19.8973 35.3252 19.9452 35.9853V40" stroke="currentColor" stroke-width="4" stroke-linecap="round" stroke-linejoin="round"/>
<path d="M20 37.4602C15.7146 38.9049 12.1427 37.4602 10 33" stroke="currentColor" stroke-width="4" stroke-linecap="round" stroke-linejoin="round"/>
</svg>
