<svg width="36" height="36" viewBox="0 0 36 36" fill="none" xmlns="http://www.w3.org/2000/svg">
<path d="M29.4293 2.98923H6.17127C4.03042 2.98923 2.29492 4.72473 2.29492 6.86557V30.1236C2.29492 32.2645 4.03042 34 6.17127 34H29.4293C31.5702 34 33.3057 32.2645 33.3057 30.1236V6.86557C33.3057 4.72473 31.5702 2.98923 29.4293 2.98923Z" stroke="currentColor" stroke-width="4" stroke-linecap="round" stroke-linejoin="round"/>
<path d="M10.0479 16.5564V26.2473" stroke="currentColor" stroke-width="4" stroke-linecap="round" stroke-linejoin="round"/>
<path d="M10.0479 10.7419V10.7609" stroke="currentColor" stroke-width="4" stroke-linecap="round" stroke-linejoin="round"/>
<path d="M17.8008 26.2473V16.5564" stroke="currentColor" stroke-width="4" stroke-linecap="round" stroke-linejoin="round"/>
<path d="M25.5535 26.2473V20.4328C25.5535 19.4047 25.1451 18.4187 24.4181 17.6918C23.6912 16.9648 22.7052 16.5564 21.6771 16.5564C20.6491 16.5564 19.6631 16.9648 18.9361 17.6918C18.2092 18.4187 17.8008 19.4047 17.8008 20.4328" stroke="currentColor" stroke-width="4" stroke-linecap="round" stroke-linejoin="round"/>
</svg>
