<svg width="59" height="53" viewBox="0 0 59 53" fill="none" xmlns="http://www.w3.org/2000/svg">
<path d="M46.4816 53C45.2897 53 44.2277 52.7351 43.1658 52.0706C40.1187 50.2073 38.9267 46.3549 40.6518 43.3016C40.9162 42.9021 40.6518 42.6371 40.3874 42.3722L29.6467 36.1267C29.5124 36.1267 29.5124 35.9921 29.3823 35.9921C29.2523 35.9921 29.1179 35.9921 29.1179 36.1267L18.2472 42.3722C17.9828 42.5068 17.9828 42.6371 17.9828 42.7718C17.9828 42.9064 17.9828 43.0367 17.9828 43.1713C19.7079 46.3593 18.646 50.2117 15.5945 52.0706C14.5326 52.6004 13.475 53 12.2787 53C9.89044 53 7.77091 51.671 6.57894 49.6775C5.51701 47.9489 5.38697 45.825 6.18017 43.8315C6.18017 43.6969 6.18017 43.4319 6.18017 43.3016C6.04581 43.167 5.91577 43.0367 5.78141 42.9021C3.66187 42.6371 1.93678 41.4428 0.874842 39.7142C-0.0527241 38.2549 -0.187091 36.3916 0.211676 34.6674C0.610442 32.9388 1.80241 31.4795 3.25877 30.6803C4.32071 30.1505 5.37831 29.7509 6.57461 29.7509C8.8285 29.7509 10.948 30.9453 12.1443 32.9388C12.2787 33.2037 12.5431 33.2037 12.6731 33.2037C12.8075 33.2037 12.9375 33.2037 13.0719 33.0691L23.947 26.6976C24.0813 26.563 24.2114 26.4327 24.2114 26.1677V13.8157C24.2114 13.4161 23.947 13.1512 23.5482 13.1512C19.968 13.0166 17.1853 10.2282 17.1853 6.64074C17.1853 3.05327 20.1023 0 23.8126 0C24.3414 0 24.8745 2.98023e-08 25.4033 0.134639C26.8597 0.534213 28.186 1.32902 28.9836 2.52774C29.1179 2.66238 29.248 2.79267 29.5124 2.79267C29.7768 2.79267 29.9111 2.65803 30.0412 2.52774C31.3675 0.933787 33.2226 0.00434321 35.2121 0.00434321C38.7924 0.00434321 41.8395 2.92731 41.8395 6.64509C41.8395 10.2326 39.0568 13.1555 35.4765 13.1555C35.0778 13.1555 34.8134 13.5551 34.8134 13.82V26.1634C34.8134 26.4283 34.9477 26.563 35.0778 26.6933L45.9485 33.0691C46.0829 33.0691 46.2129 33.2037 46.3473 33.2037C46.6117 33.2037 46.746 33.0691 46.8761 32.9388C48.068 30.9453 50.1919 29.7509 52.4458 29.7509C53.6378 29.7509 54.6997 30.0158 55.7616 30.6803C57.4867 31.7444 58.6787 33.4687 58.9431 35.4622C59.2075 37.4557 58.5443 39.4492 57.088 41.0432C56.026 42.2376 54.6997 42.9021 53.2433 43.0367C53.109 43.0367 52.8446 43.1713 52.7145 43.4363C52.5802 43.7012 52.5802 43.8359 52.7145 44.1008C53.1133 44.7653 53.2433 45.4298 53.2433 46.3593C53.1133 50.4766 49.6631 53 46.4816 53Z" fill="#9F9F9F"/>
</svg>
