<svg width="716" height="386" viewBox="0 0 716 386" fill="none" xmlns="http://www.w3.org/2000/svg">
<path d="M608 250C608 388.071 510.071 385.5 372 385.5C233.929 385.5 108 388.071 108 250C108 111.929 219.929 0 358 0C496.071 0 608 111.929 608 250Z" fill="#FCB8D0"/>
<path d="M341.618 382.877H298.364C291.155 382.877 285.313 377.015 285.313 369.78C285.313 350.572 300.85 334.98 319.991 334.98C339.132 334.98 354.669 350.572 354.669 369.78C354.669 377.015 348.827 382.877 341.618 382.877Z" fill="#191816"/>
<path d="M458.205 381.006H414.951C407.742 381.006 401.9 375.144 401.9 367.909V346.58C401.9 327.372 417.437 311.78 436.578 311.78C455.719 311.78 471.256 327.372 471.256 346.58V367.909C471.256 375.144 465.414 381.006 458.205 381.006Z" fill="#191816"/>
<path d="M555.775 324.378L669.876 350.697C689.887 355.312 709.277 340.843 710.644 320.262L715.616 242.929C716.983 222.223 699.334 205.26 678.825 207.505L559.256 220.477C542.103 222.348 529.301 236.942 529.549 254.155L530.047 292.322C530.047 307.664 540.736 321.011 555.775 324.378Z" fill="#995F4C"/>
<path d="M530.792 357.806H361.878C308.059 357.806 264.433 314.026 264.433 260.017C264.433 226.839 291.28 200.021 324.218 200.021H494.126C547.696 200.021 591.075 243.553 591.075 297.312C591.075 330.74 564.103 357.806 530.792 357.806Z" fill="#854A37"/>
<path d="M423.03 381.63H379.776C372.567 381.63 366.726 375.767 366.726 368.533C366.726 349.324 382.262 333.733 401.403 333.733C420.544 333.733 436.081 349.324 436.081 368.533C436.081 375.767 430.239 381.63 423.03 381.63Z" fill="#302E2D"/>
<path d="M313.404 332.86H265.8C228.139 332.86 197.688 302.301 197.688 264.507V262.886C197.688 225.092 228.139 194.533 265.8 194.533H313.404C351.065 194.533 381.517 225.092 381.517 262.886V264.507C381.517 302.301 351.065 332.86 313.404 332.86Z" fill="#995F4C"/>
<path d="M258.466 309.161H144.117C131.066 309.161 120.501 298.559 120.501 285.462C120.501 272.365 131.066 261.763 144.117 261.763H258.466C271.517 261.763 282.082 272.365 282.082 285.462C282.082 298.559 271.517 309.161 258.466 309.161Z" fill="#302E2D"/>
<path d="M317.505 255.527C321.967 255.527 325.584 251.897 325.584 247.419C325.584 242.941 321.967 239.312 317.505 239.312C313.043 239.312 309.426 242.941 309.426 247.419C309.426 251.897 313.043 255.527 317.505 255.527Z" fill="#191816"/>
<path d="M205.642 253.032C210.103 253.032 213.721 249.402 213.721 244.924C213.721 240.447 210.103 236.817 205.642 236.817C201.18 236.817 197.562 240.447 197.562 244.924C197.562 249.402 201.18 253.032 205.642 253.032Z" fill="#191816"/>
<path d="M244.794 297.935H242.308C229.257 297.935 218.692 287.333 218.692 274.236V259.269C218.692 246.172 229.257 235.57 242.308 235.57H244.794C257.845 235.57 268.41 246.172 268.41 259.269V274.236C268.41 287.333 257.845 297.935 244.794 297.935Z" fill="#302E2D"/>
<path d="M212.478 215.613H362.872V166.968C362.872 158.735 356.16 152 347.957 152H227.393C219.189 152 212.478 158.735 212.478 166.968V215.613Z" fill="#159791"/>
<path d="M356.657 219.354H171.461C164.624 219.354 159.031 213.742 159.031 206.881C159.031 200.021 164.624 194.408 171.461 194.408H356.657C363.493 194.408 369.086 200.021 369.086 206.881C369.086 213.742 363.493 219.354 356.657 219.354Z" fill="#24A7A1"/>
<path d="M541.481 381.879H498.228C491.019 381.879 485.177 376.017 485.177 368.782V347.453C485.177 328.245 500.713 312.653 519.854 312.653C538.996 312.653 554.532 328.245 554.532 347.453V368.782C554.532 376.017 548.69 381.879 541.481 381.879Z" fill="#302E2D"/>
<path d="M14.7909 368.097H116.96C125.163 368.097 131.751 361.486 131.751 353.254V345.52C131.751 337.288 125.163 330.677 116.96 330.677H14.7909C6.58753 330.677 0 337.288 0 345.52V353.254C0 361.486 6.58753 368.097 14.7909 368.097Z" fill="#159791"/>
<path d="M62.2712 344.398H106.892C112.361 344.398 116.96 339.907 116.96 334.294C116.96 314.337 100.802 298.247 81.0394 298.247H62.3955C56.9266 298.247 52.3277 302.737 52.3277 308.35V334.419C52.2034 339.907 56.678 344.398 62.2712 344.398Z" fill="#24A7A1"/>
<path d="M108.756 384.312C117.337 384.312 124.293 377.331 124.293 368.72C124.293 360.109 117.337 353.129 108.756 353.129C100.176 353.129 93.2197 360.109 93.2197 368.72C93.2197 377.331 100.176 384.312 108.756 384.312Z" fill="#191816"/>
<path d="M31.6948 384.312C40.2755 384.312 47.2315 377.331 47.2315 368.72C47.2315 360.109 40.2755 353.129 31.6948 353.129C23.1142 353.129 16.1582 360.109 16.1582 368.72C16.1582 377.331 23.1142 384.312 31.6948 384.312Z" fill="#191816"/>
<path d="M480.344 185.85H401.791C393.588 185.85 387 179.239 387 171.007V163.273C387 155.041 393.588 148.43 401.791 148.43H480.344C488.547 148.43 495.135 155.041 495.135 163.273V171.007C495.135 179.239 488.547 185.85 480.344 185.85Z" fill="#21577F"/>
<path d="M468.909 162.151H411.859C406.39 162.151 401.791 157.66 401.791 152.047C401.791 132.09 417.949 116 437.712 116H468.785C474.254 116 478.853 120.49 478.853 126.103V152.172C478.977 157.66 474.502 162.151 468.909 162.151Z" fill="#2470A7"/>
<path d="M409.995 202.065C418.575 202.065 425.531 195.084 425.531 186.473C425.531 177.862 418.575 170.882 409.995 170.882C401.414 170.882 394.458 177.862 394.458 186.473C394.458 195.084 401.414 202.065 409.995 202.065Z" fill="#191816"/>
<path d="M472.141 202.065C480.722 202.065 487.678 195.084 487.678 186.473C487.678 177.862 480.722 170.882 472.141 170.882C463.56 170.882 456.604 177.862 456.604 186.473C456.604 195.084 463.56 202.065 472.141 202.065Z" fill="#191816"/>
</svg>
