<svg width="31" height="36" viewBox="0 0 31 36" fill="none" xmlns="http://www.w3.org/2000/svg">
<path d="M21.0767 5.78516H25.0834C25.9336 5.78516 26.7489 6.12287 27.35 6.724C27.9512 7.32513 28.2889 8.14045 28.2889 8.99058V29.8258C28.2889 30.6759 27.9512 31.4912 27.35 32.0924C26.7489 32.6935 25.9336 33.0312 25.0834 33.0312H5.85093C5.0008 33.0312 4.18549 32.6935 3.58435 32.0924C2.98322 31.4912 2.64551 30.6759 2.64551 29.8258V8.99058C2.64551 8.14045 2.98322 7.32513 3.58435 6.724C4.18549 6.12287 5.0008 5.78516 5.85093 5.78516H9.8577" stroke="currentColor" stroke-width="4" stroke-linecap="round" stroke-linejoin="round"/>
<path d="M10.0519 5.00818C10.2253 4.31473 10.6254 3.6991 11.1888 3.25915C11.7521 2.81921 12.4464 2.58019 13.1612 2.58008H17.7722C18.487 2.58019 19.1812 2.81921 19.7446 3.25915C20.3079 3.6991 20.7081 4.31473 20.8814 5.00818L21.8783 8.99092H9.05664L10.0519 5.00818Z" stroke="currentColor" stroke-width="4" stroke-linecap="round" stroke-linejoin="round"/>
<path d="M10.6592 18.6069H20.2754" stroke="currentColor" stroke-width="4" stroke-linecap="round"/>
<path d="M10.6592 25.0176H20.2754" stroke="currentColor" stroke-width="4" stroke-linecap="round"/>
</svg>
