<svg width="45" height="46" viewBox="0 0 45 46" fill="none" xmlns="http://www.w3.org/2000/svg">
<path d="M7.5 5.10101C6.83696 5.10101 6.20107 5.36972 5.73223 5.84804C5.26339 6.32635 5 6.97508 5 7.65152V38.2576C5 38.934 5.26339 39.5827 5.73223 40.0611C6.20107 40.5394 6.83696 40.8081 7.5 40.8081H37.5C38.163 40.8081 38.7989 40.5394 39.2678 40.0611C39.7366 39.5827 40 38.934 40 38.2576V7.65152C40 6.97508 39.7366 6.32635 39.2678 5.84804C38.7989 5.36972 38.163 5.10101 37.5 5.10101H30V28.0556C30.0001 28.5173 29.8773 28.9704 29.6447 29.3665C29.4121 29.7627 29.0785 30.0869 28.6794 30.3048C28.2803 30.5226 27.8308 30.6258 27.3787 30.6034C26.9266 30.581 26.489 30.4338 26.1125 30.1776L20 26.0203L13.8875 30.1776C13.511 30.4338 13.0734 30.581 12.6213 30.6034C12.1692 30.6258 11.7197 30.5226 11.3206 30.3048C10.9215 30.0869 10.5879 29.7627 10.3553 29.3665C10.1227 28.9704 9.99993 28.5173 10 28.0556V5.10101H7.5ZM15 5.10101V23.2912L18.6125 20.8325C19.0233 20.5529 19.5061 20.4037 20 20.4037C20.4939 20.4037 20.9767 20.5529 21.3875 20.8325L25 23.2912V5.10101H15ZM0 7.65152C0 5.62221 0.790177 3.67601 2.1967 2.24108C3.60322 0.80614 5.51088 0 7.5 0H37.5C39.4891 0 41.3968 0.80614 42.8033 2.24108C44.2098 3.67601 45 5.62221 45 7.65152V38.2576C45 40.2869 44.2098 42.2331 42.8033 43.668C41.3968 45.103 39.4891 45.9091 37.5 45.9091H7.5C5.51088 45.9091 3.60322 45.103 2.1967 43.668C0.790177 42.2331 0 40.2869 0 38.2576V7.65152Z" fill="currentColor"/>
</svg>
