<svg width="40" height="40" viewBox="0 0 40 40" fill="none" xmlns="http://www.w3.org/2000/svg">
<path d="M37.6587 17.3547L4.64844 0.866134C4.20311 0.660017 3.71326 0.568444 3.22346 0.599749C2.73366 0.631054 2.25948 0.784245 1.84408 1.04538C1.42867 1.30651 1.08525 1.66728 0.845055 2.09486C0.604864 2.52245 0.475538 3.00325 0.46885 3.49351V36.4565C0.464691 36.9597 0.590555 37.4556 0.834278 37.896C1.078 38.3365 1.43134 38.7067 1.86014 38.9708C2.28894 39.235 2.77871 39.3842 3.2821 39.404C3.78548 39.4238 4.28547 39.3135 4.73374 39.0839L37.6587 22.5953C38.1464 22.3507 38.5564 21.9755 38.843 21.5115C39.1295 21.0475 39.2812 20.5131 39.2812 19.9679C39.2812 19.4227 39.1295 18.8883 38.843 18.4243C38.5564 17.9603 38.1464 17.5851 37.6587 17.3405V17.3547Z" fill="#F5F5F5"/>
</svg>
