<svg width="520" height="503" viewBox="0 0 520 503" fill="none" xmlns="http://www.w3.org/2000/svg">
<path d="M292.958 219.585L264.653 216.965C259.908 216.556 256.472 212.299 256.881 207.632L258.19 193.713C259.335 181.187 270.461 171.935 282.978 173.081C295.495 174.227 304.739 185.362 303.594 197.889L302.285 211.807C301.876 216.556 297.703 219.995 292.958 219.585Z" fill="#191816"/>
<path d="M358.786 184.681L430.396 210.17C442.971 214.619 457.73 207.07 461.513 194.274L475.614 146.151C479.386 133.279 470.123 121.276 456.253 121.045L375.597 119.701C364.034 119.483 353.54 127.604 351.289 138.509L346.234 162.487C344.157 172.169 349.355 181.343 358.786 184.681Z" fill="#995F4C"/>
<path d="M324.455 194.123L223.666 147.045C191.597 132.062 177.689 93.9092 192.66 61.8146C201.823 42.0831 225.302 33.5682 245.018 42.7381L346.298 90.0611C378.203 104.962 392.029 142.952 377.14 174.964C367.895 194.86 344.252 203.456 324.455 194.123Z" fill="#854A37"/>
<path d="M220.476 367.613C208.041 367.613 197.979 377.684 197.979 390.128V478.143C197.979 490.588 208.041 500.658 220.476 500.658C232.911 500.658 242.974 490.588 242.974 478.143V390.128C242.974 377.684 232.911 367.613 220.476 367.613Z" fill="#C17937"/>
<path d="M407.818 399.544H362.823V477.16C362.823 489.605 372.886 499.675 385.321 499.675C397.756 499.675 407.818 489.605 407.818 477.16V399.544Z" fill="#C17937"/>
<path d="M478.746 288.032L506.398 275.751C517.933 270.593 523.169 257.084 518.015 245.457C512.861 233.913 499.362 228.673 487.745 233.831L460.094 246.112L478.746 288.032Z" fill="#D48A47"/>
<path d="M329.527 429.837H266.043C196.833 429.837 140.712 373.672 140.712 304.407V252.089C140.712 228.592 159.692 209.597 183.171 209.597H384.094C422.217 209.597 453.141 240.545 453.141 278.698V305.962C453.223 374.409 397.838 429.837 329.527 429.837Z" fill="#C17937"/>
<path d="M186.525 382.35L87.127 282.874L220.639 149.256C223.012 146.882 226.939 146.882 229.311 149.256L324.373 244.393L186.525 382.35Z" fill="#C17937"/>
<path d="M380.413 446.212C315.784 446.212 263.426 393.813 263.426 329.132V324.22C263.426 259.54 315.784 207.141 380.413 207.141C445.042 207.141 497.4 259.54 497.4 324.22V329.132C497.4 393.813 445.042 446.212 380.413 446.212Z" fill="#C17937"/>
<path d="M483.901 370.888H438.906V478.143C438.906 490.587 448.969 500.658 461.404 500.658C473.839 500.658 483.901 490.587 483.901 478.143V370.888Z" fill="#D48A47"/>
<path d="M441.114 446.212H433.588C384.911 446.212 345.479 406.749 345.479 358.034C345.479 319.471 376.731 288.196 415.263 288.196H423.444C461.976 288.196 493.227 319.471 493.227 358.034V393.976C493.309 422.796 469.911 446.212 441.114 446.212Z" fill="#D48A47"/>
<path d="M290.422 367.613C277.987 367.613 267.925 377.684 267.925 390.128V479.698C267.925 492.143 277.987 502.214 290.422 502.214C302.857 502.214 312.92 492.143 312.92 479.698V390.128C312.92 377.684 302.857 367.613 290.422 367.613Z" fill="#D48A47"/>
<path d="M242.974 460.13H203.542C192.334 460.13 183.253 469.218 183.253 480.435C183.253 491.652 192.334 500.74 203.542 500.74H221.949C233.565 500.74 242.974 491.324 242.974 479.698V460.13Z" fill="#C17937"/>
<path d="M313.002 461.768H273.57C262.362 461.768 253.281 470.856 253.281 482.073C253.281 493.289 262.362 502.377 273.57 502.377H291.977C303.594 502.377 313.002 492.962 313.002 481.336V461.768Z" fill="#D48A47"/>
<path d="M407.9 458.493H368.468C357.26 458.493 348.18 467.581 348.18 478.798C348.18 490.014 357.26 499.102 368.468 499.102H386.875C398.492 499.102 407.9 489.687 407.9 478.061V458.493Z" fill="#C17937"/>
<path d="M483.982 460.13H444.55C433.343 460.13 424.262 469.218 424.262 480.435C424.262 491.652 433.343 500.74 444.55 500.74H462.957C474.574 500.74 483.982 491.324 483.982 479.698V460.13Z" fill="#D48A47"/>
<path d="M186.443 146.308L152.901 179.877L127.459 154.414C118.214 145.162 118.214 130.097 127.459 120.846C136.703 111.594 151.756 111.594 161 120.846L186.443 146.308Z" fill="#C17937"/>
<path d="M222.685 329.132H57.9213C30.0244 329.132 7.36328 306.453 7.36328 278.535V203.374C7.36328 171.935 32.7241 146.554 64.057 146.554H222.603C250.5 146.554 273.161 169.233 273.161 197.152V278.453C273.243 306.453 250.582 329.132 222.685 329.132Z" fill="#D48A47"/>
<path d="M217.695 183.233C216.304 183.233 215.24 182.169 215.24 180.777V170.215C215.24 168.824 216.304 167.759 217.695 167.759C219.085 167.759 220.149 168.824 220.149 170.215V180.777C220.149 182.169 219.003 183.233 217.695 183.233Z" fill="#4F330E"/>
<path d="M247.555 201.409H237.002C235.611 201.409 234.548 200.345 234.548 198.953C234.548 197.561 235.611 196.497 237.002 196.497H247.555C248.946 196.497 250.01 197.561 250.01 198.953C250.01 200.345 248.864 201.409 247.555 201.409Z" fill="#4F330E"/>
<path d="M231.684 189.292C231.029 189.292 230.457 189.046 229.966 188.555C228.984 187.573 228.984 186.017 229.966 185.117L238.392 176.684C239.374 175.701 240.928 175.701 241.828 176.684C242.81 177.666 242.81 179.222 241.828 180.122L233.402 188.555C232.993 189.046 232.338 189.292 231.684 189.292Z" fill="#4F330E"/>
<path d="M218.022 218.521C228.64 218.521 237.247 209.907 237.247 199.281C237.247 188.655 228.64 180.04 218.022 180.04C207.404 180.04 198.797 188.655 198.797 199.281C198.797 209.907 207.404 218.521 218.022 218.521Z" fill="#2D1F0D"/>
<path d="M91.38 298.839H57.5111C54.8114 298.839 52.6025 296.629 52.6025 293.927C52.6025 291.225 54.8114 289.014 57.5111 289.014H91.38C94.0797 289.014 96.2886 291.225 96.2886 293.927C96.2886 296.629 94.0797 298.839 91.38 298.839Z" fill="#4F330E"/>
<path d="M161.572 200.181H118.214C115.923 200.181 114.123 198.38 114.123 196.088C114.123 193.795 115.923 191.994 118.214 191.994H161.572C163.863 191.994 165.663 193.795 165.663 196.088C165.663 198.38 163.863 200.181 161.572 200.181Z" fill="#21577F"/>
<path d="M237.246 227.609H163.618C161.327 227.609 159.527 225.808 159.527 223.515V186.672C159.527 184.38 161.327 182.578 163.618 182.578H237.246C239.537 182.578 241.336 184.38 241.336 186.672V223.515C241.336 225.808 239.537 227.609 237.246 227.609ZM167.708 219.422H233.156V190.766H167.708V219.422Z" fill="#2470A7"/>
<path d="M101.934 255.446H24.0519C10.717 255.446 0 244.721 0 231.375V190.193C0 176.929 10.717 166.204 24.0519 166.204H102.016C115.269 166.204 126.068 176.929 126.068 190.275V231.457C125.986 244.721 115.269 255.446 101.934 255.446Z" fill="#4F330E"/>
<path d="M97.2704 202.064H89.4985C84.0173 202.064 79.5996 197.643 79.5996 192.158V185.198C79.5996 179.713 84.0173 175.292 89.4985 175.292H97.2704C102.752 175.292 107.169 179.713 107.169 185.198V192.158C107.169 197.643 102.752 202.064 97.2704 202.064Z" fill="#2D1F0D"/>
<path d="M31.9881 202.228H24.2163C18.7351 202.228 14.3174 197.807 14.3174 192.321V185.362C14.3174 179.877 18.7351 175.455 24.2163 175.455H31.9881C37.4693 175.455 41.887 179.877 41.887 185.362V192.321C41.887 197.807 37.4693 202.228 31.9881 202.228Z" fill="#2D1F0D"/>
<path d="M268.907 186.508L235.365 152.94L260.808 127.477C270.052 118.226 285.105 118.226 294.35 127.477C303.594 136.729 303.594 151.794 294.35 161.046L268.907 186.508Z" fill="#D48A47"/>
<path d="M271.688 136.565L252.299 157.361C249.109 160.8 243.628 161.046 240.192 157.771C230.947 149.174 230.456 134.764 239.046 125.512C247.636 116.261 262.035 115.769 271.279 124.366C274.715 127.641 274.879 133.045 271.688 136.565Z" fill="#302E2D"/>
<path d="M206.895 156.952L178.834 152.531C174.171 151.794 170.981 147.373 171.717 142.706C173.68 130.261 185.379 121.746 197.814 123.711C210.249 125.676 218.757 137.384 216.794 149.829C215.976 154.496 211.558 157.689 206.895 156.952Z" fill="#302E2D"/>
<path d="M348.588 229.001L320.282 226.381C315.538 225.972 312.102 221.714 312.511 217.047L313.82 203.129C314.965 190.602 326.091 181.35 338.608 182.497C351.124 183.643 360.369 194.778 359.224 207.304L357.915 221.223C357.506 225.972 353.333 229.41 348.588 229.001Z" fill="#302E2D"/>
<path d="M216.957 118.717H185.624C160.836 118.717 140.793 98.6579 140.793 73.8501V72.7858C140.793 47.978 160.836 27.9189 185.624 27.9189H216.957C241.745 27.9189 261.789 47.978 261.789 72.7858V73.8501C261.789 98.6579 241.745 118.717 216.957 118.717Z" fill="#995F4C"/>
<path d="M180.798 103.161H105.534C96.944 103.161 89.9902 96.2016 89.9902 87.6049C89.9902 79.0082 96.944 72.0489 105.534 72.0489H180.798C189.388 72.0489 196.342 79.0082 196.342 87.6049C196.342 96.2016 189.388 103.161 180.798 103.161Z" fill="#302E2D"/>
<path d="M219.657 67.9552C222.594 67.9552 224.975 65.5726 224.975 62.6334C224.975 59.6943 222.594 57.3116 219.657 57.3116C216.721 57.3116 214.34 59.6943 214.34 62.6334C214.34 65.5726 216.721 67.9552 219.657 67.9552Z" fill="#191816"/>
<path d="M146.03 66.3177C148.966 66.3177 151.347 63.9351 151.347 60.996C151.347 58.0568 148.966 55.6742 146.03 55.6742C143.093 55.6742 140.712 58.0568 140.712 60.996C140.712 63.9351 143.093 66.3177 146.03 66.3177Z" fill="#191816"/>
<path d="M171.798 95.7923H170.162C161.572 95.7923 154.618 88.833 154.618 80.2363V70.4114C154.618 61.8147 161.572 54.8554 170.162 54.8554H171.798C180.388 54.8554 187.342 61.8147 187.342 70.4114V80.2363C187.342 88.833 180.388 95.7923 171.798 95.7923Z" fill="#302E2D"/>
<path d="M150.528 41.7556H249.517V9.82485C249.517 4.42118 245.1 0 239.7 0H160.345C154.946 0 150.528 4.42118 150.528 9.82485V41.7556Z" fill="#159791"/>
<path d="M245.427 44.2118H123.531C119.032 44.2118 115.351 40.5275 115.351 36.0244C115.351 31.5214 119.032 27.8371 123.531 27.8371H245.427C249.927 27.8371 253.608 31.5214 253.608 36.0244C253.608 40.5275 249.927 44.2118 245.427 44.2118Z" fill="#24A7A1"/>
</svg>
