<svg width="38" height="42" viewBox="0 0 38 42" fill="none" xmlns="http://www.w3.org/2000/svg">
<path d="M35.8889 42H2.11111C1.55121 42 1.01424 41.7788 0.61833 41.3849C0.22242 40.9911 0 40.457 0 39.9V2.1C0 1.54305 0.22242 1.0089 0.61833 0.615076C1.01424 0.221249 1.55121 0 2.11111 0H35.8889C36.4488 0 36.9858 0.221249 37.3817 0.615076C37.7776 1.0089 38 1.54305 38 2.1V39.9C38 40.457 37.7776 40.9911 37.3817 41.3849C36.9858 41.7788 36.4488 42 35.8889 42ZM33.7778 37.8V4.2H4.22222V37.8H33.7778ZM8.44444 8.4H16.8889V16.8H8.44444V8.4ZM8.44444 21H29.5556V25.2H8.44444V21ZM8.44444 29.4H29.5556V33.6H8.44444V29.4ZM21.1111 10.5H29.5556V14.7H21.1111V10.5Z" fill="currentColor"/>
</svg>
