<svg width="725" height="410" viewBox="0 0 725 410" fill="none" xmlns="http://www.w3.org/2000/svg">
<path d="M612 274C612 412.071 514.071 409.5 376 409.5C237.929 409.5 112 412.071 112 274C112 135.929 223.929 24 362 24C500.071 24 612 135.929 612 274Z" fill="#FCB8D0"/>
<path d="M103.026 400.632V357.187H206.504C218.511 357.187 228.227 366.902 228.227 378.909C228.227 390.916 218.511 400.632 206.504 400.632H103.026Z" fill="#C17937"/>
<path d="M189.204 400.711V362.637C189.204 351.815 197.972 343.047 208.794 343.047C219.616 343.047 228.384 351.815 228.384 362.637V380.41C228.384 391.627 219.3 400.711 208.083 400.711H189.204Z" fill="#C17937"/>
<path d="M291.103 272.114H334.548V378.752C334.548 390.758 324.832 400.474 312.825 400.474C300.819 400.474 291.103 390.758 291.103 378.752V272.114Z" fill="#C17937"/>
<path d="M39.8328 246.678L13.1339 234.83C1.99615 229.853 -3.05928 216.82 1.91715 205.603C6.89358 194.465 19.9271 189.41 31.1438 194.386L57.8428 206.235L39.8328 246.678Z" fill="#D48A47"/>
<path d="M234.467 344.232L291.103 320.851C352.874 295.416 382.338 224.64 356.903 162.869L337.629 116.186C329.019 95.253 305.006 85.3002 284.073 93.9102L104.685 167.846C70.6395 181.906 54.3673 220.849 68.4277 254.894L78.4596 279.223C103.579 340.362 173.407 369.431 234.467 344.232Z" fill="#C17937"/>
<path d="M329.334 283.172L439.368 203.786L332.73 55.9153C330.835 53.2296 327.122 52.6767 324.436 54.5725L219.22 130.562L329.334 283.172Z" fill="#C17937"/>
<path d="M194.97 377.566C252.634 353.79 280.122 287.754 256.346 230.09L254.529 225.746C230.753 168.082 164.717 140.593 107.053 164.37C49.3899 188.146 21.901 254.182 45.6773 311.846L47.4941 316.19C71.2704 373.854 137.307 401.343 194.97 377.566Z" fill="#C17937"/>
<path d="M77.5113 400.632V357.187H180.989C192.996 357.187 202.712 366.902 202.712 378.909C202.712 390.916 192.996 400.632 180.989 400.632H77.5113Z" fill="#D48A47"/>
<path d="M73.7201 401.659H80.9873C127.987 401.659 166.061 363.585 166.061 316.585C166.061 279.381 135.886 249.206 98.6812 249.206H90.7821C53.5774 249.206 23.4029 279.381 23.4029 316.585V351.262C23.3239 379.067 45.9153 401.659 73.7201 401.659Z" fill="#D48A47"/>
<path d="M259.506 272.114C271.513 272.114 281.229 281.83 281.229 293.836V380.252C281.229 392.259 271.513 401.975 259.506 401.975C247.499 401.975 237.784 392.259 237.784 380.252V293.836C237.784 281.83 247.578 272.114 259.506 272.114Z" fill="#D48A47"/>
<path d="M291.103 361.373H329.177C339.999 361.373 348.767 370.141 348.767 380.963C348.767 391.785 339.999 400.553 329.177 400.553H311.404C300.187 400.553 291.103 391.469 291.103 380.252V361.373Z" fill="#C17937"/>
<path d="M237.705 362.953H275.778C286.6 362.953 295.368 371.721 295.368 382.543C295.368 393.365 286.6 402.133 275.778 402.133H258.005C246.789 402.133 237.705 393.049 237.705 381.832V362.953Z" fill="#D48A47"/>
<path d="M163.611 400.711V362.637C163.611 351.815 172.379 343.047 183.201 343.047C194.023 343.047 202.791 351.815 202.791 362.637V380.41C202.791 391.627 193.707 400.711 182.49 400.711H163.611Z" fill="#D48A47"/>
<path d="M409.352 79.2178L414.566 124.717L449.085 120.767C461.644 119.345 470.649 107.971 469.227 95.411C467.805 82.8514 456.431 73.8464 443.871 75.2683L409.352 79.2178Z" fill="#C17937"/>
<path d="M272.224 195.493L396.635 294.468C417.725 311.293 448.453 307.739 465.278 286.648L510.461 229.854C529.26 206.156 525.39 171.716 501.693 152.916L381.784 57.6534C360.694 40.8283 329.966 44.3829 313.141 65.4735L264.325 126.928C247.579 148.019 251.054 178.747 272.224 195.493Z" fill="#D48A47"/>
<path d="M365.038 86.4844C367.171 83.7987 369.304 81.113 371.437 78.5063" stroke="#4F330E" stroke-width="6" stroke-miterlimit="10" stroke-linecap="round"/>
<path d="M339.604 88.6175C336.918 86.4847 334.232 84.352 331.625 82.2192" stroke="#4F330E" stroke-width="6" stroke-miterlimit="10" stroke-linecap="round"/>
<path d="M350.82 82.6143C350.346 78.8228 349.951 74.9522 349.477 71.1606" stroke="#4F330E" stroke-width="6" stroke-miterlimit="10" stroke-linecap="round"/>
<path d="M353.664 118.792C343.412 118.792 335.101 110.481 335.101 100.229C335.101 89.9774 343.412 81.6665 353.664 81.6665C363.916 81.6665 372.227 89.9774 372.227 100.229C372.227 110.481 363.916 118.792 353.664 118.792Z" fill="#2D1F0D"/>
<path d="M418.121 268.164C409.59 261.371 401.059 254.578 392.528 247.785" stroke="#4F330E" stroke-width="12" stroke-miterlimit="10" stroke-linecap="round"/>
<path d="M430.996 157.814L398.215 131.747" stroke="#21577F" stroke-width="10" stroke-miterlimit="10" stroke-linecap="round" stroke-linejoin="round"/>
<path d="M346.683 79.1764L402.326 123.424L380.203 151.246L324.559 106.998L346.683 79.1764Z" stroke="#2470A7" stroke-width="10" stroke-miterlimit="10" stroke-linecap="round" stroke-linejoin="round"/>
<path d="M407.614 212.396L466.541 259.238C476.573 267.216 491.186 265.557 499.164 255.525L523.888 224.403C531.867 214.371 530.208 199.757 520.176 191.779L461.249 144.938C451.217 136.96 436.603 138.618 428.625 148.65L403.901 179.773C395.923 189.805 397.582 204.418 407.614 212.396Z" fill="#4F330E"/>
<path d="M443.239 174.875L449.164 179.536C453.271 182.774 459.274 182.142 462.592 178.035L466.779 172.743C470.017 168.635 469.385 162.632 465.278 159.314L459.353 154.654C455.246 151.415 449.243 152.047 445.925 156.154L441.738 161.447C438.421 165.633 439.132 171.558 443.239 174.875Z" fill="#2D1F0D"/>
<path d="M492.529 214.292L498.454 218.952C502.561 222.191 508.564 221.559 511.882 217.451L516.069 212.159C519.307 208.052 518.675 202.048 514.568 198.731L508.643 194.07C504.536 190.831 498.533 191.463 495.215 195.571L491.028 200.863C487.711 204.971 488.343 210.974 492.529 214.292Z" fill="#2D1F0D"/>
<path d="M322.857 60.0228L368.355 54.8094L364.406 20.2904C362.984 7.7308 351.609 -1.27417 339.05 0.14767C326.49 1.56951 317.485 12.9442 318.907 25.5038L322.857 60.0228Z" fill="#D48A47"/>
<path d="M623.102 385.308V270.771C623.102 266.426 619.547 262.872 615.202 262.872C610.858 262.872 607.303 266.426 607.303 270.771V385.308C607.303 389.652 610.858 393.207 615.202 393.207C619.547 393.207 623.102 389.731 623.102 385.308Z" fill="#666666"/>
<path d="M513.304 400.316H717.101C721.445 400.316 725 396.761 725 392.417C725 388.072 721.445 384.518 717.101 384.518H513.304C508.96 384.518 505.405 388.072 505.405 392.417C505.405 396.84 508.96 400.316 513.304 400.316Z" fill="#666666"/>
<path d="M538.582 383.727V269.191C538.582 264.846 535.027 261.292 530.683 261.292C526.338 261.292 522.784 264.846 522.784 269.191V383.727C522.784 388.072 526.338 391.627 530.683 391.627C535.027 391.627 538.582 388.151 538.582 383.727Z" fill="#666666"/>
<path d="M706.043 383.727V269.191C706.043 264.846 702.488 261.292 698.144 261.292C693.799 261.292 690.245 264.846 690.245 269.191V383.727C690.245 388.072 693.799 391.627 698.144 391.627C702.488 391.627 706.043 388.151 706.043 383.727Z" fill="#666666"/>
<path d="M563.859 384.518H666.547C672.471 384.518 677.211 379.779 677.211 373.854C677.211 367.93 672.471 363.19 666.547 363.19H563.859C557.935 363.19 553.195 367.93 553.195 373.854C553.195 379.779 557.935 384.518 563.859 384.518Z" fill="#2470A7"/>
<path d="M574.522 363.19H657.858C663.782 363.19 668.521 358.45 668.521 352.526C668.521 346.602 663.782 341.862 657.858 341.862H574.522C568.598 341.862 563.858 346.602 563.858 352.526C563.858 358.45 568.598 363.19 574.522 363.19Z" fill="#24A7A1"/>
<path d="M583.212 341.862H649.169C655.094 341.862 659.833 337.123 659.833 331.198C659.833 325.274 655.094 320.535 649.169 320.535H583.212C577.287 320.535 572.548 325.274 572.548 331.198C572.548 337.123 577.287 341.862 583.212 341.862Z" fill="#2470A7"/>
</svg>
