<svg width="154" height="154" viewBox="0 0 154 154" fill="none" xmlns="http://www.w3.org/2000/svg">
<path d="M96.25 43.3125C98.9079 43.3125 101.062 41.1579 101.062 38.5C101.062 35.8421 98.9079 33.6875 96.25 33.6875C93.5921 33.6875 91.4375 35.8421 91.4375 38.5C91.4375 41.1579 93.5921 43.3125 96.25 43.3125Z" fill="#FA75A3"/>
<path d="M110.688 43.3125C113.345 43.3125 115.5 41.1579 115.5 38.5C115.5 35.8421 113.345 33.6875 110.688 33.6875C108.03 33.6875 105.875 35.8421 105.875 38.5C105.875 41.1579 108.03 43.3125 110.688 43.3125Z" fill="#FA75A3"/>
<path d="M125.125 43.3125C127.783 43.3125 129.938 41.1579 129.938 38.5C129.938 35.8421 127.783 33.6875 125.125 33.6875C122.467 33.6875 120.312 35.8421 120.312 38.5C120.312 41.1579 122.467 43.3125 125.125 43.3125Z" fill="#FA75A3"/>
<path d="M134.75 19.25H19.25C16.6981 19.2525 14.2514 20.2674 12.4469 22.0719C10.6424 23.8764 9.62755 26.3231 9.625 28.875V125.125C9.62755 127.677 10.6424 130.124 12.4469 131.928C14.2514 133.733 16.6981 134.747 19.25 134.75H134.75C137.302 134.747 139.749 133.733 141.553 131.928C143.358 130.124 144.372 127.677 144.375 125.125V28.875C144.372 26.3231 143.358 23.8764 141.553 22.0719C139.749 20.2674 137.302 19.2525 134.75 19.25ZM134.75 28.875V48.125H19.25V28.875H134.75ZM19.25 57.75H48.125V125.125H19.25V57.75ZM57.75 125.125V57.75H134.75V125.125H57.75Z" fill="#FA75A3"/>
</svg>
